<svg width="41" height="41" viewBox="0 0 41 41" fill="none" xmlns="http://www.w3.org/2000/svg">
<path d="M25.3911 9.40315C25.3911 8.95854 25.0223 8.58984 24.5777 8.58984C24.1331 8.58984 23.7644 8.95854 23.7644 9.40315V11.0298H16.7157V9.40315C16.7157 8.95854 16.347 8.58984 15.9024 8.58984C15.4578 8.58984 15.0891 8.95854 15.0891 9.40315V11.0948C12.1612 11.3659 10.7406 13.1119 10.5237 15.7036C10.502 16.0181 10.7623 16.2783 11.0659 16.2783H29.4142C29.7287 16.2783 29.989 16.0072 29.9564 15.7036C29.7396 13.1119 28.319 11.3659 25.3911 11.0948V9.40315Z" fill="url(#paint0_linear_335_1381)"/>
<path fill-rule="evenodd" clip-rule="evenodd" d="M11.5649 17.9048C10.9685 17.9048 10.4805 18.3928 10.4805 18.9892V25.6692C10.4805 28.9224 12.1071 31.0913 15.9025 31.0913H24.5779C28.3733 31.0913 29.9999 28.9224 29.9999 25.6692V18.9892C29.9999 18.3928 29.5119 17.9048 28.9155 17.9048H11.5649ZM17.052 27.1115C16.987 27.1548 16.9219 27.1874 16.8568 27.2091C16.7918 27.2416 16.7267 27.2633 16.6616 27.2741C16.5857 27.285 16.5207 27.2958 16.4447 27.2958C16.3038 27.2958 16.1628 27.2633 16.0327 27.2091C15.8917 27.1548 15.7833 27.0789 15.6748 26.9813C15.4796 26.7753 15.3603 26.4933 15.3603 26.2114C15.3603 25.9295 15.4796 25.6475 15.6748 25.4415C15.7833 25.3439 15.8917 25.268 16.0327 25.2137C16.2279 25.127 16.4447 25.1053 16.6616 25.1487C16.7267 25.1595 16.7918 25.1812 16.8568 25.2137C16.9219 25.2354 16.987 25.268 17.052 25.3113C17.1062 25.3547 17.1605 25.3981 17.2147 25.4415C17.4099 25.6475 17.5292 25.9295 17.5292 26.2114C17.5292 26.4933 17.4099 26.7753 17.2147 26.9813C17.1605 27.0247 17.1062 27.0789 17.052 27.1115ZM16.4447 23.5004C16.1628 23.5004 15.8809 23.3811 15.6748 23.1859C15.4796 22.9798 15.3603 22.6979 15.3603 22.4159C15.3603 22.134 15.4796 21.8521 15.6748 21.646C15.9785 21.3424 16.4556 21.2448 16.8568 21.4183C16.9978 21.4725 17.1171 21.5484 17.2147 21.646C17.4099 21.8521 17.5292 22.134 17.5292 22.4159C17.5292 22.6979 17.4099 22.9798 17.2147 23.1859C17.0086 23.3811 16.7267 23.5004 16.4447 23.5004ZM20.2402 27.2958C19.9583 27.2958 19.6763 27.1765 19.4703 26.9813C19.2751 26.7753 19.1558 26.4933 19.1558 26.2114C19.1558 25.9295 19.2751 25.6475 19.4703 25.4415C19.8715 25.0402 20.6089 25.0402 21.0101 25.4415C21.2053 25.6475 21.3246 25.9295 21.3246 26.2114C21.3246 26.4933 21.2053 26.7753 21.0101 26.9813C20.8041 27.1765 20.5221 27.2958 20.2402 27.2958ZM20.8475 23.316C20.7824 23.3594 20.7173 23.3919 20.6523 23.4136C20.5872 23.4461 20.5221 23.4678 20.4571 23.4787C20.3812 23.4895 20.3161 23.5004 20.2402 23.5004C19.9583 23.5004 19.6763 23.3811 19.4703 23.1859C19.2751 22.9798 19.1558 22.6979 19.1558 22.4159C19.1558 22.134 19.2751 21.8521 19.4703 21.646C19.5679 21.5484 19.6871 21.4725 19.8281 21.4183C20.2294 21.2448 20.7065 21.3424 21.0101 21.646C21.2053 21.8521 21.3246 22.134 21.3246 22.4159C21.3246 22.6979 21.2053 22.9798 21.0101 23.1859C20.9559 23.2293 20.9017 23.2726 20.8475 23.316ZM24.0357 27.2958C23.7537 27.2958 23.4718 27.1765 23.2657 26.9813C23.0705 26.7753 22.9512 26.4933 22.9512 26.2114C22.9512 25.9295 23.0705 25.6475 23.2657 25.4415C23.667 25.0402 24.4044 25.0402 24.8056 25.4415C25.0008 25.6475 25.1201 25.9295 25.1201 26.2114C25.1201 26.4933 25.0008 26.7753 24.8056 26.9813C24.5995 27.1765 24.3176 27.2958 24.0357 27.2958ZM24.6429 23.316C24.5779 23.3594 24.5128 23.3919 24.4477 23.4136C24.3827 23.4461 24.3176 23.4678 24.2525 23.4787C24.1766 23.4895 24.1007 23.5004 24.0357 23.5004C23.7537 23.5004 23.4718 23.3811 23.2657 23.1859C23.0705 22.9798 22.9512 22.6979 22.9512 22.4159C22.9512 22.134 23.0705 21.8521 23.2657 21.646C23.3742 21.5484 23.4826 21.4725 23.6236 21.4183C23.8188 21.3315 24.0357 21.3098 24.2525 21.3532C24.3176 21.3641 24.3827 21.3858 24.4477 21.4183C24.5128 21.44 24.5779 21.4725 24.6429 21.5159C24.6971 21.5593 24.7514 21.6026 24.8056 21.646C25.0008 21.8521 25.1201 22.134 25.1201 22.4159C25.1201 22.6979 25.0008 22.9798 24.8056 23.1859C24.7514 23.2293 24.6971 23.2726 24.6429 23.316Z" fill="url(#paint1_linear_335_1381)"/>
<path d="M40.48 20.24C40.48 31.4182 31.4182 40.48 20.24 40.48C9.06176 40.48 0 31.4182 0 20.24C0 9.06176 9.06176 0 20.24 0C31.4182 0 40.48 9.06176 40.48 20.24ZM3.32488 20.24C3.32488 29.582 10.898 37.1551 20.24 37.1551C29.582 37.1551 37.1551 29.582 37.1551 20.24C37.1551 10.898 29.582 3.32488 20.24 3.32488C10.898 3.32488 3.32488 10.898 3.32488 20.24Z" fill="#FCF4D3"/>
<path d="M20.24 38.8173C20.24 39.7356 19.4943 40.4871 18.5791 40.4117C15.2166 40.1349 11.9671 39.0208 9.13201 37.1595C5.83234 34.9932 3.23811 31.9094 1.66867 28.2876C0.0992204 24.6657 -0.376945 20.6641 0.298784 16.7751C0.974513 12.8861 2.77264 9.27963 5.47183 6.39952C8.17102 3.51941 11.6535 1.49141 15.4905 0.565152C19.3275 -0.361106 23.3516 -0.145193 27.0675 1.18631C30.7834 2.51782 34.0288 4.90681 36.4043 8.0592C38.4454 10.7677 39.7677 13.9382 40.2618 17.2757C40.3963 18.1841 39.6946 18.977 38.7783 19.0365C37.8619 19.0959 37.0791 18.399 36.93 17.4929C36.4872 14.8028 35.3991 12.2509 33.7485 10.0605C31.7633 7.42605 29.0511 5.42958 25.9457 4.31683C22.8404 3.20409 19.4774 3.02366 16.2708 3.79773C13.0642 4.5718 10.154 6.26661 7.89824 8.67351C5.64253 11.0804 4.13983 14.0944 3.57513 17.3444C3.01042 20.5944 3.40835 23.9386 4.71994 26.9653C6.03152 29.9921 8.19952 32.5693 10.957 34.3796C13.2498 35.8848 15.8668 36.8054 18.5799 37.0729C19.4938 37.163 20.24 37.899 20.24 38.8173Z" fill="url(#paint2_linear_335_1381)"/>
<defs>
<linearGradient id="paint0_linear_335_1381" x1="20.2408" y1="8.58984" x2="20.2408" y2="16.2783" gradientUnits="userSpaceOnUse">
<stop stop-color="#FFF2BC"/>
<stop offset="1" stop-color="#FACC16"/>
</linearGradient>
<linearGradient id="paint1_linear_335_1381" x1="20.2402" y1="17.9048" x2="20.2402" y2="31.0913" gradientUnits="userSpaceOnUse">
<stop stop-color="#FFF2BC"/>
<stop offset="1" stop-color="#FACC16"/>
</linearGradient>
<linearGradient id="paint2_linear_335_1381" x1="33.5558" y1="14.9137" x2="18.6421" y2="40.48" gradientUnits="userSpaceOnUse">
<stop stop-color="#FACC16"/>
<stop offset="1" stop-color="#FFF2BC"/>
</linearGradient>
</defs>
</svg>
